<?xml version="1.0" encoding="utf-8"?>
<!-- Generator: Adobe Illustrator 21.0.0, SVG Export Plug-In . SVG Version: 6.00 Build 0)  -->
<svg version="1.1" id="Layer_1" xmlns="http://www.w3.org/2000/svg" xmlns:xlink="http://www.w3.org/1999/xlink" x="0px" y="0px"
	 viewBox="0 0 900 334" style="enable-background:new 0 0 900 334;" xml:space="preserve">
<style type="text/css">
	.st0{fill:#E2DED6;}
	.st1{fill:none;stroke:#FFFFFF;stroke-width:0.5;stroke-miterlimit:10;}
	.st2{clip-path:url(#SVGID_2_);fill:none;stroke:#FA8072;stroke-linecap:round;stroke-linejoin:round;stroke-miterlimit:10;}
	.st3{clip-path:url(#SVGID_2_);fill:none;stroke:#2C9F2C;stroke-linecap:round;stroke-linejoin:round;stroke-miterlimit:10;}
	.st4{clip-path:url(#SVGID_2_);fill:none;stroke:#B24242;stroke-linecap:round;stroke-linejoin:round;stroke-miterlimit:10;}
	.st5{clip-path:url(#SVGID_2_);fill:none;stroke:#FFA500;stroke-linecap:round;stroke-linejoin:round;stroke-miterlimit:10;}
	.st6{clip-path:url(#SVGID_2_);fill:none;stroke:#FFD700;stroke-linecap:round;stroke-linejoin:round;stroke-miterlimit:10;}
	.st7{clip-path:url(#SVGID_2_);fill:none;stroke:#51DE61;stroke-linecap:round;stroke-linejoin:round;stroke-miterlimit:10;}
	.st8{clip-path:url(#SVGID_2_);fill:none;stroke:#808000;stroke-linecap:round;stroke-linejoin:round;stroke-miterlimit:10;}
	.st9{clip-path:url(#SVGID_2_);fill:none;stroke:#84AC39;stroke-linecap:round;stroke-linejoin:round;stroke-miterlimit:10;}
	.st10{clip-path:url(#SVGID_2_);fill:none;stroke:#B16E6E;stroke-linecap:round;stroke-linejoin:round;stroke-miterlimit:10;}
	.st11{clip-path:url(#SVGID_2_);fill:none;stroke:#B9A76C;stroke-linecap:round;stroke-linejoin:round;stroke-miterlimit:10;}
	.st12{fill:none;stroke:#272525;stroke-width:0.5;stroke-miterlimit:10;}
	.st13{fill:#272525;}
	.st14{font-family:'Helvetica';}
	.st15{font-size:12px;}
</style>
<g>
	<rect x="39.3" class="st0" width="850" height="300"/>
	<path class="st1" d="M39.3,252h850 M39.3,204h850 M39.3,156h850 M39.3,108h850 M39.3,60h850 M39.3,12h850 M209.3,300V0 M379.3,300
		V0 M549.3,300V0 M719.3,300V0"/>
	<g>
		<defs>
			<rect id="SVGID_1_" x="39.3" width="850" height="300"/>
		</defs>
		<clipPath id="SVGID_2_">
			<use xlink:href="#SVGID_1_"  style="overflow:visible;"/>
		</clipPath>
		<polyline class="st2" points="39.3,271.7 41,282.2 42.7,280.8 44.4,272.6 46.1,278.9 47.8,282.7 49.5,284.6 51.2,289.9 
			52.9,288.5 54.6,288 56.3,280.3 58,289.9 59.7,288.5 61.4,289 63.1,284.6 64.8,287.5 66.5,287.5 68.2,281.8 69.9,282.2 
			71.6,280.8 73.3,286.6 75,291.4 76.7,287.5 78.4,281.3 80.1,280.8 81.8,288 83.5,287.5 85.2,283.7 86.9,283.2 88.6,286.6 
			90.3,292.3 92,286.6 93.7,278.9 95.4,276 97.1,284.6 98.8,284.2 100.5,289.9 102.2,292.8 103.9,290.4 105.6,285.6 107.3,285.1 
			109,274.1 110.7,277 112.4,280.3 114.1,273.1 115.8,273.6 117.5,272.6 119.2,263 120.9,269.3 122.6,265.9 124.3,261.1 126,264 
			127.7,260.6 129.4,262.1 131.1,243.4 132.8,241.9 134.5,241 136.2,233.3 137.9,231.4 139.6,234.2 141.3,243.8 143,231.8 
			144.7,238.6 146.4,240.5 148.1,241.4 149.8,233.3 151.5,239 153.2,247.7 154.9,248.6 156.6,253 158.3,247.2 160,245.3 
			161.7,245.8 163.4,265 165.1,258.2 166.8,267.4 168.5,260.2 170.2,265.9 171.9,264.5 173.6,266.4 175.3,259.2 177,261.1 
			178.7,255.8 180.4,248.6 182.1,245.3 183.8,249.1 185.5,253.9 187.2,256.8 188.9,261.1 190.6,280.8 192.3,275 194,279.4 
			195.7,283.2 197.4,288 199.1,289 200.8,294.2 202.5,295.2 204.2,292.8 205.9,287.5 207.6,288.5 209.3,291.4 211,291.8 
			212.7,293.3 214.4,292.8 216.1,293.8 217.8,289.9 219.5,291.4 221.2,289 222.9,286.1 224.6,296.6 226.3,295.7 228,294.7 
			229.7,293.3 231.4,289 233.1,293.8 234.8,293.8 236.5,294.7 238.2,295.7 239.9,297.1 241.6,298.1 243.3,292.8 245,294.2 
			246.7,299 248.4,297.6 250.1,299 251.8,297.1 253.5,293.3 255.2,284.2 256.9,278.4 258.6,281.8 260.3,287 262,283.2 263.7,285.1 
			265.4,285.6 267.1,281.3 268.8,285.6 270.5,284.2 272.2,280.8 273.9,282.2 275.6,282.7 277.3,281.8 279,280.3 280.7,279.4 
			282.4,279.4 284.1,269.8 285.8,259.7 287.5,255.4 289.2,249.6 290.9,250.1 292.6,260.2 294.3,254.9 296,259.7 297.7,253.9 
			299.4,265.4 301.1,272.2 302.8,277.9 304.5,279.4 306.2,278.4 307.9,276 309.6,280.3 311.3,276 313,274.6 314.7,264 316.4,255.4 
			318.1,255.8 319.8,252 321.5,253.9 323.2,254.4 324.9,254.4 326.6,266.9 328.3,262.1 330,267.4 331.7,258.7 333.4,261.1 
			335.1,263 336.8,272.2 338.5,270.7 340.2,271.7 341.9,265.9 343.6,276.5 345.3,275.5 347,280.8 348.7,284.6 350.4,288 
			352.1,292.3 353.8,289.4 355.5,287.5 357.2,287.5 358.9,285.1 360.6,286.1 362.3,289.9 364,288.5 365.7,290.4 367.4,295.7 
			369.1,297.6 370.8,296.2 372.5,295.2 374.2,298.1 375.9,299 377.6,298.6 379.3,298.6 381,300 382.7,300 384.4,300 386.1,300 
			387.8,300 389.5,300 391.2,300 392.9,300 394.6,300 396.3,300 398,300 399.7,300 401.4,300 403.1,300 404.8,300 406.5,300 
			408.2,300 409.9,300 411.6,300 413.3,300 415,300 416.7,300 418.4,300 420.1,300 421.8,300 423.5,300 425.2,300 426.9,300 
			428.6,300 430.3,300 432,300 433.7,300 435.4,300 437.1,300 438.8,300 440.5,300 442.2,300 443.9,300 445.6,300 447.3,300 
			449,299.5 450.7,300 452.4,299.5 454.1,299.5 455.8,297.6 457.5,299 459.2,299 460.9,296.6 462.6,298.1 464.3,299 466,299 
			467.7,298.6 469.4,299 471.1,298.1 472.8,299.5 474.5,298.6 476.2,299.5 477.9,299.5 479.6,297.1 481.3,298.1 483,299.5 
			484.7,300 486.4,300 488.1,300 489.8,300 491.5,300 493.2,300 494.9,300 496.6,300 498.3,300 500,300 501.7,300 503.4,300 
			505.1,299.5 506.8,300 508.5,300 510.2,300 511.9,300 513.6,300 515.3,300 517,300 518.7,300 520.4,300 522.1,300 523.8,300 
			525.5,300 527.2,300 528.9,300 530.6,300 532.3,300 534,300 535.7,300 537.4,300 539.1,299.5 540.8,300 542.5,300 544.2,300 
			545.9,300 547.6,300 549.3,300 551,300 552.7,300 554.4,300 556.1,300 557.8,299.5 559.5,299.5 561.2,299.5 562.9,299 564.6,300 
			566.3,300 568,300 569.7,300 571.4,300 573.1,300 574.8,300 576.5,300 578.2,300 579.9,299.5 581.6,299 583.3,298.6 585,300 
			586.7,300 588.4,300 590.1,300 591.8,300 593.5,299.5 595.2,299.5 596.9,300 598.6,300 600.3,300 602,300 603.7,300 605.4,300 
			607.1,300 608.8,300 610.5,300 612.2,300 613.9,300 615.6,300 617.3,300 619,300 620.7,300 622.4,300 624.1,300 625.8,300 
			627.5,300 629.2,300 630.9,299.5 632.6,299.5 634.3,299.5 636,299 637.7,298.1 639.4,298.1 641.1,299.5 642.8,300 644.5,299.5 
			646.2,298.6 647.9,300 649.6,299.5 651.3,299 653,300 654.7,300 656.4,300 658.1,299.5 659.8,300 661.5,300 663.2,300 664.9,300 
			666.6,299.5 668.3,300 670,300 671.7,299.5 673.4,298.6 675.1,300 676.8,300 678.5,300 680.2,300 681.9,300 683.6,300 
			685.3,299.5 687,299.5 688.7,299 690.4,300 692.1,299.5 693.8,300 695.5,299.5 697.2,299.5 698.9,299.5 700.6,300 702.3,300 
			704,300 705.7,300 707.4,300 709.1,300 710.8,300 712.5,300 714.2,300 715.9,300 717.6,300 719.3,300 721,300 722.7,300 
			724.4,300 726.1,300 727.8,300 729.5,300 731.2,300 732.9,300 734.6,299.5 736.3,300 738,300 739.7,300 741.4,300 743.1,300 
			744.8,300 746.5,300 748.2,300 749.9,300 751.6,300 753.3,300 755,300 756.7,300 758.4,300 760.1,300 761.8,300 763.5,300 
			765.2,300 766.9,300 768.6,300 770.3,300 772,300 773.7,300 775.4,300 777.1,299.5 778.8,300 780.5,300 782.2,300 783.9,299.5 
			785.6,300 787.3,300 789,300 790.7,300 792.4,300 794.1,299.5 795.8,299 797.5,298.1 799.2,297.1 800.9,300 802.6,300 804.3,300 
			806,300 807.7,299.5 809.4,300 811.1,299.5 812.8,299 814.5,300 816.2,300 817.9,299.5 819.6,299.5 821.3,300 823,300 824.7,300 
			826.4,300 828.1,299.5 829.8,300 831.5,299.5 833.2,300 834.9,300 836.6,300 838.3,300 840,299.5 841.7,298.6 843.4,299.5 
			845.1,298.6 846.8,299.5 848.5,300 850.2,300 851.9,300 853.6,299.5 855.3,300 857,300 858.7,300 860.4,300 862.1,300 863.8,300 
			865.5,300 867.2,300 868.9,300 870.6,300 872.3,300 874,300 875.7,300 877.4,300 879.1,300 880.8,300 882.5,300 884.2,299.5 
			885.9,298.1 887.6,300 		"/>
		<polyline class="st3" points="39.3,274.6 41,275.5 42.7,274.1 44.4,275 46.1,274.6 47.8,265 49.5,253.4 51.2,246.7 52.9,254.4 
			54.6,262.1 56.3,252.5 58,249.1 59.7,250.1 61.4,244.3 63.1,248.2 64.8,241.9 66.5,230.9 68.2,217.9 69.9,220.3 71.6,234.2 
			73.3,238.6 75,249.6 76.7,251 78.4,263 80.1,270.2 81.8,269.8 83.5,269.8 85.2,268.8 86.9,267.8 88.6,260.2 90.3,258.7 92,262.6 
			93.7,265.9 95.4,262.6 97.1,270.7 98.8,266.4 100.5,256.8 102.2,256.3 103.9,263.5 105.6,249.6 107.3,251 109,265.9 110.7,262.6 
			112.4,267.4 114.1,264.5 115.8,271.2 117.5,270.7 119.2,274.1 120.9,277.4 122.6,272.2 124.3,268.3 126,270.2 127.7,277.4 
			129.4,276.5 131.1,273.1 132.8,272.6 134.5,274.6 136.2,279.8 137.9,283.2 139.6,282.2 141.3,278.9 143,271.7 144.7,277 
			146.4,265.9 148.1,270.7 149.8,265.4 151.5,256.3 153.2,259.7 154.9,267.8 156.6,263 158.3,269.3 160,275 161.7,273.1 
			163.4,273.1 165.1,281.3 166.8,286.1 168.5,288.5 170.2,281.8 171.9,281.8 173.6,274.1 175.3,278.9 177,277.9 178.7,276 
			180.4,276 182.1,284.2 183.8,289 185.5,288.5 187.2,280.3 188.9,291.8 190.6,289.9 192.3,287.5 194,286.6 195.7,288.5 197.4,289 
			199.1,284.6 200.8,284.6 202.5,285.1 204.2,284.6 205.9,277.9 207.6,273.6 209.3,285.6 211,285.1 212.7,285.6 214.4,285.1 
			216.1,277 217.8,269.3 219.5,276.5 221.2,268.3 222.9,278.4 224.6,276 226.3,277.4 228,285.1 229.7,290.4 231.4,290.4 
			233.1,293.3 234.8,295.7 236.5,294.7 238.2,298.6 239.9,297.6 241.6,299 243.3,299.5 245,300 246.7,300 248.4,300 250.1,300 
			251.8,300 253.5,300 255.2,299.5 256.9,300 258.6,300 260.3,300 262,300 263.7,300 265.4,299.5 267.1,300 268.8,300 270.5,300 
			272.2,300 273.9,300 275.6,300 277.3,299.5 279,300 280.7,300 282.4,300 284.1,300 285.8,300 287.5,300 289.2,300 290.9,300 
			292.6,300 294.3,300 296,300 297.7,300 299.4,300 301.1,300 302.8,300 304.5,300 306.2,300 307.9,300 309.6,300 311.3,300 
			313,300 314.7,300 316.4,300 318.1,300 319.8,300 321.5,300 323.2,300 324.9,300 326.6,300 328.3,300 330,300 331.7,300 
			333.4,299.5 335.1,300 336.8,300 338.5,300 340.2,300 341.9,300 343.6,300 345.3,300 347,300 348.7,300 350.4,300 352.1,300 
			353.8,300 355.5,300 357.2,300 358.9,299.5 360.6,300 362.3,300 364,300 365.7,300 367.4,300 369.1,300 370.8,299.5 372.5,300 
			374.2,300 375.9,300 377.6,300 379.3,300 381,300 382.7,300 384.4,300 386.1,300 387.8,300 389.5,300 391.2,300 392.9,300 
			394.6,300 396.3,299.5 398,300 399.7,300 401.4,299.5 403.1,300 404.8,299.5 406.5,298.6 408.2,294.7 409.9,298.1 411.6,300 
			413.3,299.5 415,297.1 416.7,297.6 418.4,294.7 420.1,292.8 421.8,291.4 423.5,292.3 425.2,292.8 426.9,292.8 428.6,293.8 
			430.3,299 432,300 433.7,300 435.4,300 437.1,300 438.8,300 440.5,300 442.2,300 443.9,300 445.6,300 447.3,300 449,300 
			450.7,300 452.4,300 454.1,300 455.8,299.5 457.5,299.5 459.2,300 460.9,300 462.6,300 464.3,300 466,300 467.7,300 469.4,300 
			471.1,300 472.8,300 474.5,300 476.2,300 477.9,300 479.6,300 481.3,300 483,300 484.7,300 486.4,300 488.1,300 489.8,300 
			491.5,300 493.2,300 494.9,300 496.6,299.5 498.3,298.6 500,298.6 501.7,297.1 503.4,298.1 505.1,300 506.8,300 508.5,300 
			510.2,299.5 511.9,298.1 513.6,298.1 515.3,297.1 517,297.1 518.7,295.7 520.4,299 522.1,298.6 523.8,300 525.5,300 527.2,300 
			528.9,300 530.6,300 532.3,300 534,300 535.7,300 537.4,300 539.1,300 540.8,300 542.5,300 544.2,300 545.9,300 547.6,300 
			549.3,299.5 551,300 552.7,300 554.4,300 556.1,300 557.8,300 559.5,300 561.2,300 562.9,300 564.6,299.5 566.3,299.5 568,300 
			569.7,300 571.4,300 573.1,300 574.8,299.5 576.5,300 578.2,300 579.9,300 581.6,300 583.3,300 585,300 586.7,300 588.4,300 
			590.1,300 591.8,300 593.5,300 595.2,300 596.9,300 598.6,300 600.3,300 602,300 603.7,299.5 605.4,297.1 607.1,295.7 
			608.8,295.7 610.5,296.6 612.2,297.6 613.9,299.5 615.6,299.5 617.3,300 619,300 620.7,300 622.4,300 624.1,300 625.8,300 
			627.5,300 629.2,300 630.9,300 632.6,300 634.3,300 636,300 637.7,300 639.4,300 641.1,300 642.8,300 644.5,300 646.2,300 
			647.9,300 649.6,300 651.3,300 653,300 654.7,300 656.4,300 658.1,300 659.8,300 661.5,300 663.2,300 664.9,299.5 666.6,300 
			668.3,300 670,299.5 671.7,300 673.4,300 675.1,300 676.8,300 678.5,300 680.2,300 681.9,300 683.6,300 685.3,300 687,300 
			688.7,300 690.4,300 692.1,300 693.8,300 695.5,300 697.2,300 698.9,300 700.6,300 702.3,300 704,300 705.7,300 707.4,299.5 
			709.1,300 710.8,300 712.5,300 714.2,300 715.9,300 717.6,300 719.3,300 721,300 722.7,300 724.4,300 726.1,300 727.8,300 
			729.5,300 731.2,300 732.9,300 734.6,300 736.3,300 738,300 739.7,300 741.4,300 743.1,300 744.8,300 746.5,300 748.2,300 
			749.9,300 751.6,300 753.3,299.5 755,300 756.7,300 758.4,300 760.1,300 761.8,300 763.5,300 765.2,300 766.9,300 768.6,300 
			770.3,300 772,300 773.7,300 775.4,300 777.1,300 778.8,300 780.5,300 782.2,299.5 783.9,298.1 785.6,299 787.3,299 789,299.5 
			790.7,300 792.4,300 794.1,300 795.8,300 797.5,300 799.2,299.5 800.9,300 802.6,300 804.3,300 806,300 807.7,300 809.4,300 
			811.1,300 812.8,300 814.5,300 816.2,300 817.9,300 819.6,299.5 821.3,300 823,300 824.7,300 826.4,300 828.1,300 829.8,300 
			831.5,300 833.2,300 834.9,300 836.6,300 838.3,300 840,300 841.7,300 843.4,300 845.1,299.5 846.8,300 848.5,300 850.2,300 
			851.9,300 853.6,300 855.3,299.5 857,300 858.7,299.5 860.4,299.5 862.1,300 863.8,300 865.5,300 867.2,300 868.9,300 870.6,300 
			872.3,300 874,300 875.7,300 877.4,300 879.1,300 880.8,300 882.5,300 884.2,300 885.9,300 887.6,300 		"/>
		<polyline class="st4" points="39.3,273.6 41,259.2 42.7,255.4 44.4,263.5 46.1,267.8 47.8,274.1 49.5,273.6 51.2,279.8 
			52.9,283.2 54.6,283.2 56.3,287.5 58,288 59.7,289.9 61.4,285.6 63.1,274.6 64.8,277 66.5,285.1 68.2,293.3 69.9,293.3 71.6,289 
			73.3,295.7 75,296.2 76.7,298.1 78.4,299 80.1,299.5 81.8,299 83.5,296.2 85.2,298.6 86.9,297.1 88.6,294.2 90.3,296.6 92,295.7 
			93.7,295.2 95.4,292.8 97.1,290.9 98.8,296.2 100.5,299 102.2,299.5 103.9,300 105.6,300 107.3,300 109,300 110.7,300 112.4,300 
			114.1,300 115.8,300 117.5,300 119.2,300 120.9,299.5 122.6,299.5 124.3,300 126,300 127.7,300 129.4,300 131.1,300 132.8,300 
			134.5,300 136.2,300 137.9,300 139.6,300 141.3,300 143,300 144.7,299.5 146.4,300 148.1,300 149.8,300 151.5,300 153.2,300 
			154.9,300 156.6,300 158.3,300 160,300 161.7,300 163.4,300 165.1,299.5 166.8,300 168.5,299.5 170.2,299 171.9,300 173.6,300 
			175.3,300 177,299.5 178.7,300 180.4,300 182.1,300 183.8,300 185.5,300 187.2,300 188.9,300 190.6,300 192.3,300 194,300 
			195.7,300 197.4,300 199.1,300 200.8,300 202.5,300 204.2,300 205.9,300 207.6,300 209.3,299.5 211,300 212.7,300 214.4,300 
			216.1,300 217.8,300 219.5,300 221.2,299.5 222.9,300 224.6,300 226.3,300 228,300 229.7,300 231.4,300 233.1,300 234.8,300 
			236.5,300 238.2,300 239.9,300 241.6,300 243.3,300 245,300 246.7,300 248.4,300 250.1,300 251.8,300 253.5,300 255.2,300 
			256.9,300 258.6,300 260.3,300 262,300 263.7,300 265.4,300 267.1,300 268.8,300 270.5,300 272.2,300 273.9,300 275.6,299.5 
			277.3,300 279,300 280.7,300 282.4,300 284.1,300 285.8,300 287.5,300 289.2,300 290.9,300 292.6,300 294.3,300 296,300 
			297.7,300 299.4,300 301.1,300 302.8,300 304.5,300 306.2,300 307.9,299.5 309.6,298.1 311.3,298.1 313,297.1 314.7,299 
			316.4,298.1 318.1,293.8 319.8,296.2 321.5,298.1 323.2,299 324.9,296.6 326.6,300 328.3,300 330,300 331.7,300 333.4,300 
			335.1,300 336.8,300 338.5,299.5 340.2,300 341.9,300 343.6,300 345.3,300 347,300 348.7,300 350.4,300 352.1,300 353.8,300 
			355.5,300 357.2,300 358.9,300 360.6,300 362.3,300 364,300 365.7,300 367.4,300 369.1,300 370.8,300 372.5,300 374.2,300 
			375.9,300 377.6,300 379.3,300 381,300 382.7,299.5 384.4,300 386.1,300 387.8,300 389.5,299.5 391.2,300 392.9,300 394.6,300 
			396.3,300 398,300 399.7,299.5 401.4,300 403.1,300 404.8,300 406.5,300 408.2,300 409.9,300 411.6,300 413.3,300 415,300 
			416.7,300 418.4,300 420.1,300 421.8,300 423.5,300 425.2,300 426.9,300 428.6,300 430.3,300 432,300 433.7,300 435.4,300 
			437.1,300 438.8,300 440.5,300 442.2,300 443.9,300 445.6,300 447.3,300 449,300 450.7,300 452.4,300 454.1,300 455.8,300 
			457.5,300 459.2,300 460.9,300 462.6,300 464.3,300 466,300 467.7,300 469.4,300 471.1,300 472.8,300 474.5,299.5 476.2,300 
			477.9,300 479.6,300 481.3,300 483,300 484.7,299.5 486.4,298.6 488.1,300 489.8,299.5 491.5,298.1 493.2,297.6 494.9,300 
			496.6,300 498.3,300 500,300 501.7,300 503.4,300 505.1,300 506.8,300 508.5,300 510.2,300 511.9,300 513.6,300 515.3,300 
			517,300 518.7,300 520.4,299.5 522.1,300 523.8,300 525.5,300 527.2,300 528.9,300 530.6,300 532.3,300 534,300 535.7,300 
			537.4,300 539.1,300 540.8,300 542.5,300 544.2,300 545.9,300 547.6,300 549.3,300 551,300 552.7,300 554.4,299.5 556.1,299.5 
			557.8,300 559.5,300 561.2,300 562.9,300 564.6,300 566.3,300 568,300 569.7,300 571.4,300 573.1,300 574.8,300 576.5,300 
			578.2,300 579.9,300 581.6,300 583.3,300 585,300 586.7,300 588.4,300 590.1,300 591.8,300 593.5,300 595.2,300 596.9,299.5 
			598.6,300 600.3,300 602,300 603.7,300 605.4,300 607.1,300 608.8,300 610.5,300 612.2,300 613.9,300 615.6,300 617.3,300 
			619,300 620.7,300 622.4,300 624.1,300 625.8,300 627.5,300 629.2,300 630.9,300 632.6,300 634.3,300 636,300 637.7,300 
			639.4,300 641.1,300 642.8,300 644.5,300 646.2,300 647.9,300 649.6,300 651.3,300 653,300 654.7,299.5 656.4,300 658.1,300 
			659.8,300 661.5,300 663.2,300 664.9,300 666.6,300 668.3,300 670,300 671.7,300 673.4,300 675.1,300 676.8,300 678.5,299.5 
			680.2,298.1 681.9,296.6 683.6,296.6 685.3,298.6 687,298.6 688.7,300 690.4,300 692.1,300 693.8,300 695.5,300 697.2,300 
			698.9,300 700.6,300 702.3,300 704,300 705.7,300 707.4,300 709.1,300 710.8,300 712.5,300 714.2,300 715.9,300 717.6,300 
			719.3,300 721,300 722.7,300 724.4,299.5 726.1,300 727.8,300 729.5,299.5 731.2,300 732.9,300 734.6,300 736.3,300 738,299.5 
			739.7,298.6 741.4,300 743.1,300 744.8,300 746.5,300 748.2,300 749.9,300 751.6,300 753.3,300 755,299.5 756.7,299.5 758.4,300 
			760.1,300 761.8,300 763.5,300 765.2,300 766.9,300 768.6,300 770.3,300 772,300 773.7,300 775.4,300 777.1,300 778.8,300 
			780.5,300 782.2,300 783.9,300 785.6,300 787.3,300 789,300 790.7,300 792.4,300 794.1,300 795.8,300 797.5,300 799.2,300 
			800.9,300 802.6,300 804.3,300 806,300 807.7,300 809.4,300 811.1,300 812.8,300 814.5,300 816.2,300 817.9,300 819.6,300 
			821.3,300 823,299.5 824.7,300 826.4,300 828.1,300 829.8,300 831.5,300 833.2,300 834.9,299.5 836.6,300 838.3,300 840,300 
			841.7,300 843.4,300 845.1,300 846.8,300 848.5,300 850.2,300 851.9,300 853.6,300 855.3,300 857,300 858.7,300 860.4,300 
			862.1,299.5 863.8,300 865.5,300 867.2,300 868.9,300 870.6,300 872.3,300 874,300 875.7,299.5 877.4,298.6 879.1,300 880.8,300 
			882.5,300 884.2,300 885.9,300 887.6,300 		"/>
		<polyline class="st5" points="39.3,269.8 41,273.1 42.7,271.2 44.4,270.7 46.1,266.9 47.8,246.7 49.5,261.6 51.2,268.3 
			52.9,269.3 54.6,269.3 56.3,277 58,280.3 59.7,279.4 61.4,279.4 63.1,277.4 64.8,270.7 66.5,268.8 68.2,274.6 69.9,279.4 
			71.6,277 73.3,278.4 75,284.2 76.7,286.6 78.4,285.1 80.1,285.1 81.8,289.4 83.5,291.4 85.2,299 86.9,298.6 88.6,296.6 
			90.3,295.7 92,298.6 93.7,298.1 95.4,300 97.1,300 98.8,300 100.5,299.5 102.2,300 103.9,300 105.6,300 107.3,300 109,300 
			110.7,300 112.4,300 114.1,299.5 115.8,299 117.5,300 119.2,300 120.9,300 122.6,300 124.3,300 126,300 127.7,299.5 129.4,298.6 
			131.1,298.1 132.8,299.5 134.5,299 136.2,300 137.9,300 139.6,300 141.3,300 143,300 144.7,300 146.4,300 148.1,299.5 149.8,300 
			151.5,300 153.2,300 154.9,300 156.6,299.5 158.3,299 160,300 161.7,300 163.4,300 165.1,300 166.8,299.5 168.5,300 170.2,299.5 
			171.9,297.6 173.6,297.1 175.3,298.1 177,293.8 178.7,296.2 180.4,296.2 182.1,295.2 183.8,292.3 185.5,295.2 187.2,296.6 
			188.9,299.5 190.6,299.5 192.3,300 194,300 195.7,300 197.4,300 199.1,300 200.8,300 202.5,300 204.2,300 205.9,300 207.6,300 
			209.3,300 211,300 212.7,300 214.4,300 216.1,300 217.8,300 219.5,300 221.2,300 222.9,300 224.6,300 226.3,300 228,299.5 
			229.7,300 231.4,299.5 233.1,300 234.8,300 236.5,300 238.2,300 239.9,300 241.6,300 243.3,299.5 245,298.6 246.7,300 248.4,300 
			250.1,300 251.8,299.5 253.5,299.5 255.2,299.5 256.9,300 258.6,300 260.3,300 262,300 263.7,300 265.4,300 267.1,300 268.8,300 
			270.5,300 272.2,300 273.9,300 275.6,300 277.3,300 279,300 280.7,300 282.4,300 284.1,300 285.8,300 287.5,300 289.2,300 
			290.9,300 292.6,300 294.3,299.5 296,299 297.7,300 299.4,299.5 301.1,300 302.8,300 304.5,300 306.2,300 307.9,300 309.6,299.5 
			311.3,298.6 313,299 314.7,300 316.4,300 318.1,300 319.8,300 321.5,300 323.2,300 324.9,300 326.6,300 328.3,300 330,300 
			331.7,300 333.4,300 335.1,300 336.8,300 338.5,300 340.2,300 341.9,300 343.6,300 345.3,300 347,300 348.7,300 350.4,300 
			352.1,300 353.8,299.5 355.5,296.6 357.2,293.3 358.9,290.9 360.6,292.8 362.3,293.3 364,296.2 365.7,291.4 367.4,287.5 
			369.1,271.2 370.8,276 372.5,278.9 374.2,271.2 375.9,273.6 377.6,277.4 379.3,285.1 381,289.9 382.7,295.7 384.4,295.7 
			386.1,299.5 387.8,299 389.5,299.5 391.2,299 392.9,298.1 394.6,299 396.3,297.1 398,295.7 399.7,297.1 401.4,295.7 403.1,296.2 
			404.8,298.1 406.5,299.5 408.2,298.6 409.9,297.6 411.6,295.7 413.3,295.2 415,295.2 416.7,295.2 418.4,294.7 420.1,295.7 
			421.8,294.7 423.5,295.2 425.2,294.2 426.9,294.2 428.6,292.3 430.3,288.5 432,286.6 433.7,289.9 435.4,298.1 437.1,299 
			438.8,299.5 440.5,299 442.2,297.1 443.9,299.5 445.6,295.7 447.3,290.9 449,289.4 450.7,294.7 452.4,295.7 454.1,296.2 
			455.8,297.1 457.5,298.6 459.2,299.5 460.9,300 462.6,300 464.3,300 466,300 467.7,300 469.4,300 471.1,300 472.8,300 474.5,300 
			476.2,300 477.9,300 479.6,300 481.3,299.5 483,300 484.7,300 486.4,300 488.1,300 489.8,300 491.5,300 493.2,300 494.9,300 
			496.6,300 498.3,300 500,300 501.7,300 503.4,300 505.1,300 506.8,300 508.5,300 510.2,300 511.9,300 513.6,300 515.3,300 
			517,300 518.7,300 520.4,300 522.1,300 523.8,300 525.5,299.5 527.2,299 528.9,299 530.6,299.5 532.3,299 534,299.5 535.7,298.6 
			537.4,299.5 539.1,300 540.8,300 542.5,300 544.2,300 545.9,300 547.6,300 549.3,300 551,300 552.7,300 554.4,300 556.1,300 
			557.8,300 559.5,300 561.2,300 562.9,300 564.6,300 566.3,300 568,300 569.7,300 571.4,300 573.1,300 574.8,300 576.5,300 
			578.2,300 579.9,300 581.6,300 583.3,300 585,300 586.7,300 588.4,300 590.1,300 591.8,300 593.5,300 595.2,300 596.9,300 
			598.6,300 600.3,300 602,300 603.7,300 605.4,300 607.1,300 608.8,300 610.5,300 612.2,300 613.9,300 615.6,300 617.3,300 
			619,300 620.7,300 622.4,300 624.1,299.5 625.8,299.5 627.5,297.1 629.2,295.2 630.9,293.3 632.6,290.9 634.3,290.9 636,291.4 
			637.7,297.1 639.4,296.2 641.1,296.2 642.8,295.2 644.5,295.7 646.2,295.7 647.9,293.8 649.6,299.5 651.3,299.5 653,300 
			654.7,300 656.4,300 658.1,300 659.8,300 661.5,300 663.2,300 664.9,300 666.6,300 668.3,299.5 670,300 671.7,300 673.4,300 
			675.1,300 676.8,299.5 678.5,300 680.2,300 681.9,300 683.6,300 685.3,300 687,299.5 688.7,300 690.4,300 692.1,300 693.8,300 
			695.5,300 697.2,300 698.9,300 700.6,300 702.3,300 704,300 705.7,300 707.4,300 709.1,299.5 710.8,299.5 712.5,300 714.2,300 
			715.9,300 717.6,300 719.3,300 721,300 722.7,299.5 724.4,300 726.1,299.5 727.8,299 729.5,299 731.2,299 732.9,299.5 734.6,300 
			736.3,300 738,300 739.7,300 741.4,300 743.1,300 744.8,300 746.5,300 748.2,300 749.9,299.5 751.6,299.5 753.3,300 755,300 
			756.7,300 758.4,300 760.1,300 761.8,300 763.5,300 765.2,300 766.9,300 768.6,300 770.3,300 772,300 773.7,300 775.4,300 
			777.1,300 778.8,300 780.5,300 782.2,300 783.9,300 785.6,299.5 787.3,300 789,300 790.7,300 792.4,299.5 794.1,299 795.8,299.5 
			797.5,299.5 799.2,299.5 800.9,300 802.6,300 804.3,300 806,299.5 807.7,299 809.4,299 811.1,300 812.8,300 814.5,300 
			816.2,299.5 817.9,300 819.6,300 821.3,300 823,300 824.7,300 826.4,300 828.1,300 829.8,300 831.5,300 833.2,299.5 834.9,300 
			836.6,300 838.3,300 840,300 841.7,300 843.4,299.5 845.1,299.5 846.8,300 848.5,300 850.2,299.5 851.9,300 853.6,300 855.3,300 
			857,300 858.7,300 860.4,300 862.1,300 863.8,300 865.5,300 867.2,300 868.9,300 870.6,300 872.3,300 874,300 875.7,300 
			877.4,300 879.1,300 880.8,300 882.5,299.5 884.2,300 885.9,300 887.6,300 		"/>
		<polyline class="st6" points="39.3,272.2 41,265.9 42.7,278.9 44.4,274.1 46.1,282.7 47.8,277.4 49.5,287.5 51.2,285.6 
			52.9,290.4 54.6,289.9 56.3,284.2 58,288 59.7,295.7 61.4,292.3 63.1,290.4 64.8,292.3 66.5,290.9 68.2,289 69.9,288.5 71.6,287 
			73.3,281.3 75,289 76.7,290.4 78.4,289.9 80.1,291.8 81.8,291.4 83.5,294.7 85.2,293.8 86.9,288 88.6,293.8 90.3,289.9 92,287.5 
			93.7,291.4 95.4,292.3 97.1,293.3 98.8,288.5 100.5,289 102.2,293.3 103.9,291.4 105.6,296.2 107.3,297.1 109,298.1 110.7,299 
			112.4,296.6 114.1,297.1 115.8,297.6 117.5,299.5 119.2,300 120.9,300 122.6,300 124.3,300 126,300 127.7,300 129.4,299.5 
			131.1,300 132.8,300 134.5,300 136.2,299.5 137.9,300 139.6,300 141.3,300 143,300 144.7,300 146.4,300 148.1,300 149.8,300 
			151.5,300 153.2,300 154.9,300 156.6,300 158.3,300 160,300 161.7,300 163.4,300 165.1,300 166.8,300 168.5,300 170.2,300 
			171.9,300 173.6,300 175.3,300 177,300 178.7,299.5 180.4,297.1 182.1,294.7 183.8,295.7 185.5,293.8 187.2,289.4 188.9,274.6 
			190.6,279.4 192.3,282.7 194,282.2 195.7,278.9 197.4,278.4 199.1,280.3 200.8,286.6 202.5,288 204.2,286.6 205.9,288.5 
			207.6,285.6 209.3,285.1 211,283.7 212.7,289 214.4,288.5 216.1,290.9 217.8,294.2 219.5,293.3 221.2,294.2 222.9,292.3 
			224.6,291.8 226.3,289.4 228,286.6 229.7,281.3 231.4,276.5 233.1,267.4 234.8,270.7 236.5,274.6 238.2,282.2 239.9,282.2 
			241.6,282.2 243.3,289.9 245,294.7 246.7,292.3 248.4,289.4 250.1,284.6 251.8,279.4 253.5,273.1 255.2,277 256.9,269.8 
			258.6,280.3 260.3,285.6 262,291.8 263.7,293.3 265.4,298.1 267.1,297.6 268.8,294.7 270.5,294.7 272.2,297.1 273.9,294.2 
			275.6,296.6 277.3,299 279,299.5 280.7,299.5 282.4,299.5 284.1,299.5 285.8,300 287.5,299.5 289.2,300 290.9,300 292.6,300 
			294.3,300 296,300 297.7,300 299.4,300 301.1,300 302.8,300 304.5,300 306.2,300 307.9,300 309.6,300 311.3,300 313,300 
			314.7,300 316.4,300 318.1,300 319.8,300 321.5,300 323.2,300 324.9,300 326.6,299.5 328.3,300 330,300 331.7,300 333.4,300 
			335.1,300 336.8,300 338.5,300 340.2,300 341.9,300 343.6,300 345.3,300 347,300 348.7,300 350.4,300 352.1,300 353.8,300 
			355.5,300 357.2,300 358.9,300 360.6,300 362.3,300 364,300 365.7,299.5 367.4,299.5 369.1,299.5 370.8,299.5 372.5,300 
			374.2,300 375.9,300 377.6,300 379.3,300 381,300 382.7,300 384.4,300 386.1,299.5 387.8,300 389.5,300 391.2,300 392.9,300 
			394.6,300 396.3,300 398,300 399.7,300 401.4,300 403.1,300 404.8,300 406.5,300 408.2,300 409.9,300 411.6,300 413.3,300 
			415,300 416.7,300 418.4,300 420.1,299.5 421.8,300 423.5,299.5 425.2,300 426.9,300 428.6,300 430.3,300 432,300 433.7,300 
			435.4,300 437.1,300 438.8,300 440.5,300 442.2,300 443.9,300 445.6,300 447.3,300 449,300 450.7,300 452.4,300 454.1,300 
			455.8,300 457.5,300 459.2,300 460.9,300 462.6,300 464.3,300 466,300 467.7,299.5 469.4,300 471.1,300 472.8,300 474.5,300 
			476.2,299.5 477.9,300 479.6,300 481.3,300 483,300 484.7,300 486.4,300 488.1,300 489.8,300 491.5,300 493.2,299.5 494.9,300 
			496.6,300 498.3,300 500,300 501.7,300 503.4,300 505.1,300 506.8,300 508.5,300 510.2,300 511.9,299.5 513.6,300 515.3,300 
			517,300 518.7,300 520.4,300 522.1,300 523.8,300 525.5,300 527.2,300 528.9,300 530.6,300 532.3,300 534,300 535.7,300 
			537.4,300 539.1,300 540.8,300 542.5,300 544.2,299.5 545.9,300 547.6,300 549.3,300 551,300 552.7,300 554.4,300 556.1,300 
			557.8,300 559.5,300 561.2,300 562.9,299.5 564.6,299.5 566.3,300 568,300 569.7,300 571.4,300 573.1,300 574.8,300 576.5,300 
			578.2,300 579.9,300 581.6,300 583.3,300 585,300 586.7,300 588.4,300 590.1,300 591.8,300 593.5,300 595.2,300 596.9,300 
			598.6,299.5 600.3,299 602,297.1 603.7,293.3 605.4,293.8 607.1,296.6 608.8,293.8 610.5,299 612.2,300 613.9,300 615.6,300 
			617.3,299.5 619,298.1 620.7,294.7 622.4,297.6 624.1,299 625.8,300 627.5,300 629.2,300 630.9,300 632.6,300 634.3,300 
			636,299.5 637.7,299.5 639.4,299.5 641.1,300 642.8,300 644.5,300 646.2,300 647.9,300 649.6,300 651.3,300 653,300 654.7,300 
			656.4,299.5 658.1,300 659.8,300 661.5,300 663.2,299.5 664.9,300 666.6,300 668.3,300 670,300 671.7,300 673.4,300 675.1,300 
			676.8,300 678.5,300 680.2,300 681.9,300 683.6,300 685.3,300 687,300 688.7,300 690.4,300 692.1,300 693.8,300 695.5,300 
			697.2,299.5 698.9,300 700.6,300 702.3,300 704,300 705.7,300 707.4,300 709.1,300 710.8,300 712.5,300 714.2,300 715.9,300 
			717.6,300 719.3,299.5 721,299.5 722.7,300 724.4,300 726.1,300 727.8,300 729.5,300 731.2,300 732.9,299.5 734.6,300 736.3,300 
			738,300 739.7,300 741.4,300 743.1,300 744.8,299.5 746.5,300 748.2,300 749.9,300 751.6,300 753.3,300 755,300 756.7,300 
			758.4,299.5 760.1,300 761.8,300 763.5,300 765.2,299.5 766.9,300 768.6,300 770.3,300 772,300 773.7,300 775.4,300 777.1,300 
			778.8,300 780.5,300 782.2,300 783.9,300 785.6,300 787.3,300 789,300 790.7,300 792.4,300 794.1,300 795.8,300 797.5,300 
			799.2,300 800.9,300 802.6,300 804.3,300 806,300 807.7,300 809.4,299.5 811.1,300 812.8,300 814.5,299.5 816.2,300 817.9,300 
			819.6,300 821.3,300 823,300 824.7,300 826.4,300 828.1,300 829.8,300 831.5,300 833.2,300 834.9,300 836.6,300 838.3,300 
			840,300 841.7,300 843.4,300 845.1,300 846.8,300 848.5,300 850.2,300 851.9,300 853.6,300 855.3,300 857,300 858.7,300 
			860.4,300 862.1,300 863.8,300 865.5,300 867.2,299.5 868.9,299.5 870.6,298.6 872.3,298.1 874,297.6 875.7,299 877.4,300 
			879.1,300 880.8,300 882.5,300 884.2,300 885.9,300 887.6,300 		"/>
		<polyline class="st7" points="39.3,265.9 41,264 42.7,280.8 44.4,283.2 46.1,277.4 47.8,277 49.5,271.2 51.2,261.6 52.9,259.2 
			54.6,266.4 56.3,260.6 58,252.5 59.7,248.6 61.4,235.7 63.1,236.2 64.8,225.6 66.5,228.5 68.2,243.8 69.9,228.5 71.6,233.3 
			73.3,235.7 75,216 76.7,219.4 78.4,220.8 80.1,217.4 81.8,219.8 83.5,232.3 85.2,222.2 86.9,217.9 88.6,226.1 90.3,212.2 92,229 
			93.7,237.6 95.4,246.2 97.1,246.2 98.8,238.1 100.5,241.4 102.2,250.6 103.9,249.1 105.6,248.2 107.3,247.7 109,244.8 
			110.7,248.2 112.4,231.4 114.1,243.4 115.8,230.4 117.5,220.3 119.2,238.6 120.9,239.5 122.6,240.5 124.3,242.4 126,232.8 
			127.7,224.2 129.4,219.4 131.1,222.7 132.8,229.9 134.5,218.4 136.2,196.8 137.9,204 139.6,207.4 141.3,202.1 143,205.4 
			144.7,201.6 146.4,213.6 148.1,203.5 149.8,207.8 151.5,219.8 153.2,218.4 154.9,198.2 156.6,211.7 158.3,215 160,216 
			161.7,229.4 163.4,208.3 165.1,208.8 166.8,196.8 168.5,200.2 170.2,199.2 171.9,205.9 173.6,210.7 175.3,220.8 177,231.4 
			178.7,232.8 180.4,235.2 182.1,228.5 183.8,230.9 185.5,231.8 187.2,224.2 188.9,235.2 190.6,237.6 192.3,249.1 194,247.2 
			195.7,242.9 197.4,229.9 199.1,204.5 200.8,198.2 202.5,199.7 204.2,208.8 205.9,203 207.6,207.8 209.3,206.4 211,208.3 
			212.7,185.3 214.4,179 216.1,169 217.8,176.6 219.5,158.9 221.2,178.1 222.9,167.5 224.6,171.8 226.3,174.7 228,169 229.7,163.2 
			231.4,173.8 233.1,183.8 234.8,180 236.5,165.1 238.2,166.6 239.9,174.2 241.6,189.1 243.3,194.9 245,216 246.7,190.6 248.4,181 
			250.1,178.6 251.8,200.2 253.5,205.4 255.2,214.1 256.9,229.9 258.6,217.9 260.3,224.2 262,231.4 263.7,223.7 265.4,220.8 
			267.1,230.9 268.8,235.2 270.5,229.9 272.2,236.2 273.9,227.5 275.6,222.2 277.3,230.9 279,229.9 280.7,237.1 282.4,242.9 
			284.1,263 285.8,263.5 287.5,256.8 289.2,261.6 290.9,252.5 292.6,247.7 294.3,245.8 296,234.2 297.7,237.1 299.4,249.1 
			301.1,224.2 302.8,211.2 304.5,208.8 306.2,211.2 307.9,205.4 309.6,202.6 311.3,201.6 313,190.1 314.7,177.1 316.4,157.4 
			318.1,157 319.8,159.4 321.5,163.7 323.2,169 324.9,180.5 326.6,176.6 328.3,174.7 330,168.5 331.7,169.9 333.4,175.7 
			335.1,169.4 336.8,156 338.5,150.7 340.2,150.7 341.9,169 343.6,164.2 345.3,160.3 347,159.4 348.7,146.9 350.4,143 352.1,139.2 
			353.8,142.6 355.5,140.2 357.2,136.8 358.9,126.2 360.6,117.6 362.3,111.8 364,109 365.7,110.9 367.4,105.1 369.1,121.9 
			370.8,118.6 372.5,127.2 374.2,130.1 375.9,105.1 377.6,105.1 379.3,110.4 381,97 382.7,83 384.4,80.2 386.1,83 387.8,76.3 
			389.5,65.3 391.2,62.9 392.9,62.4 394.6,51.8 396.3,66.2 398,68.2 399.7,84 401.4,90.7 403.1,95.5 404.8,76.3 406.5,87.4 
			408.2,84.5 409.9,76.3 411.6,62.4 413.3,78.2 415,83.5 416.7,90.2 418.4,96 420.1,87.8 421.8,95.5 423.5,103.2 425.2,93.1 
			426.9,96.5 428.6,97.4 430.3,101.8 432,98.4 433.7,85 435.4,54.2 437.1,46.6 438.8,48 440.5,49 442.2,54.7 443.9,40.8 445.6,38.4 
			447.3,29.3 449,30.7 450.7,22.1 452.4,16.8 454.1,24.5 455.8,28.3 457.5,24 459.2,19.2 460.9,34.6 462.6,32.6 464.3,39.4 
			466,35.5 467.7,27.4 469.4,23 471.1,26.9 472.8,42.2 474.5,38.9 476.2,48 477.9,54.7 479.6,47 481.3,36 483,32.6 484.7,31.2 
			486.4,26.9 488.1,29.3 489.8,23.5 491.5,27.4 493.2,31.2 494.9,30.2 496.6,32.2 498.3,29.8 500,31.7 501.7,46.1 503.4,50.9 
			505.1,50.9 506.8,55.2 508.5,59 510.2,50.4 511.9,49 513.6,48 515.3,59.5 517,47 518.7,44.6 520.4,43.2 522.1,43.2 523.8,30.7 
			525.5,33.6 527.2,38.4 528.9,29.3 530.6,25.9 532.3,28.3 534,21.1 535.7,24 537.4,17.3 539.1,13.4 540.8,24 542.5,15.8 
			544.2,20.6 545.9,28.8 547.6,32.6 549.3,24.5 551,24.5 552.7,26.9 554.4,17.3 556.1,20.2 557.8,28.3 559.5,27.8 561.2,39.4 
			562.9,50.4 564.6,56.6 566.3,63.8 568,63.4 569.7,72.5 571.4,79.7 573.1,81.1 574.8,97.4 576.5,97.4 578.2,105.1 579.9,99.8 
			581.6,105.1 583.3,117.1 585,117.6 586.7,126.2 588.4,122.9 590.1,106.1 591.8,119.5 593.5,139.2 595.2,148.3 596.9,151.2 
			598.6,166.1 600.3,173.8 602,172.3 603.7,177.6 605.4,184.8 607.1,197.3 608.8,181.9 610.5,180.5 612.2,186.2 613.9,181.9 
			615.6,193.9 617.3,193.4 619,178.1 620.7,185.3 622.4,193 624.1,193.9 625.8,176.2 627.5,187.2 629.2,170.4 630.9,155.5 
			632.6,145 634.3,141.6 636,147.8 637.7,147.4 639.4,141.6 641.1,151.7 642.8,157.9 644.5,165.6 646.2,169.9 647.9,164.2 
			649.6,162.2 651.3,157.9 653,175.7 654.7,185.8 656.4,185.3 658.1,198.2 659.8,196.8 661.5,199.2 663.2,191.5 664.9,183.4 
			666.6,188.2 668.3,162.7 670,163.7 671.7,152.2 673.4,138.2 675.1,128.6 676.8,116.6 678.5,132 680.2,137.3 681.9,141.6 
			683.6,137.8 685.3,137.3 687,138.7 688.7,135.4 690.4,133.4 692.1,114.2 693.8,114.2 695.5,109 697.2,118.1 698.9,109.9 
			700.6,118.6 702.3,86.9 704,88.3 705.7,86.4 707.4,90.7 709.1,100.8 710.8,101.3 712.5,128.6 714.2,132.5 715.9,131.5 
			717.6,132.5 719.3,128.6 721,148.8 722.7,146.4 724.4,160.8 726.1,164.2 727.8,178.6 729.5,169.9 731.2,184.8 732.9,180.5 
			734.6,185.3 736.3,198.7 738,185.8 739.7,188.2 741.4,213.1 743.1,213.6 744.8,222.2 746.5,243.8 748.2,244.8 749.9,239.5 
			751.6,231.4 753.3,222.7 755,235.7 756.7,248.6 758.4,242.9 760.1,239.5 761.8,255.8 763.5,263.5 765.2,260.2 766.9,241.9 
			768.6,240.5 770.3,246.2 772,259.7 773.7,270.7 775.4,270.2 777.1,276.5 778.8,275 780.5,266.4 782.2,275 783.9,272.2 
			785.6,270.7 787.3,274.1 789,269.8 790.7,276 792.4,286.6 794.1,291.8 795.8,290.9 797.5,289 799.2,289 800.9,289 802.6,286.6 
			804.3,278.9 806,284.2 807.7,290.4 809.4,292.8 811.1,283.7 812.8,282.7 814.5,292.3 816.2,287.5 817.9,291.8 819.6,295.7 
			821.3,299 823,299.5 824.7,297.6 826.4,299 828.1,299 829.8,299.5 831.5,300 833.2,300 834.9,300 836.6,300 838.3,300 840,300 
			841.7,300 843.4,300 845.1,300 846.8,300 848.5,300 850.2,300 851.9,300 853.6,300 855.3,300 857,300 858.7,300 860.4,300 
			862.1,300 863.8,300 865.5,299.5 867.2,299 868.9,299 870.6,297.1 872.3,296.2 874,297.1 875.7,299 877.4,300 879.1,300 
			880.8,300 882.5,300 884.2,300 885.9,300 887.6,300 		"/>
		<polyline class="st8" points="39.3,266.9 41,264.5 42.7,259.2 44.4,265.9 46.1,271.7 47.8,274.1 49.5,269.8 51.2,274.1 
			52.9,273.1 54.6,270.7 56.3,277.9 58,271.7 59.7,267.4 61.4,272.2 63.1,280.3 64.8,287 66.5,289.9 68.2,290.9 69.9,291.8 
			71.6,297.1 73.3,296.6 75,297.1 76.7,296.6 78.4,295.2 80.1,295.7 81.8,288.5 83.5,278.9 85.2,282.2 86.9,280.8 88.6,284.2 
			90.3,291.8 92,295.7 93.7,290.4 95.4,293.8 97.1,291.8 98.8,286.6 100.5,281.8 102.2,266.9 103.9,263 105.6,273.6 107.3,282.2 
			109,282.7 110.7,265.9 112.4,267.8 114.1,266.4 115.8,272.2 117.5,267.8 119.2,260.2 120.9,263.5 122.6,262.6 124.3,254.4 
			126,248.6 127.7,256.8 129.4,258.2 131.1,265.4 132.8,268.8 134.5,262.6 136.2,256.8 137.9,254.4 139.6,244.3 141.3,245.8 
			143,255.4 144.7,253.4 146.4,251.5 148.1,262.6 149.8,263.5 151.5,256.3 153.2,255.4 154.9,267.4 156.6,255.4 158.3,258.7 
			160,272.2 161.7,274.6 163.4,280.8 165.1,286.1 166.8,285.1 168.5,278.9 170.2,275.5 171.9,265.9 173.6,265 175.3,261.6 
			177,268.8 178.7,277.9 180.4,277.4 182.1,280.8 183.8,278.4 185.5,277.4 187.2,289 188.9,288.5 190.6,288 192.3,295.7 194,291.4 
			195.7,292.8 197.4,292.8 199.1,294.7 200.8,297.6 202.5,296.2 204.2,298.1 205.9,298.6 207.6,297.6 209.3,297.6 211,299 
			212.7,299 214.4,297.1 216.1,297.1 217.8,296.2 219.5,295.2 221.2,298.1 222.9,300 224.6,300 226.3,299.5 228,300 229.7,300 
			231.4,300 233.1,300 234.8,300 236.5,300 238.2,300 239.9,300 241.6,300 243.3,300 245,300 246.7,299.5 248.4,295.7 250.1,299 
			251.8,299.5 253.5,299.5 255.2,300 256.9,300 258.6,300 260.3,300 262,300 263.7,300 265.4,300 267.1,300 268.8,300 270.5,300 
			272.2,300 273.9,300 275.6,300 277.3,300 279,300 280.7,300 282.4,300 284.1,300 285.8,300 287.5,300 289.2,300 290.9,300 
			292.6,300 294.3,300 296,300 297.7,300 299.4,300 301.1,299.5 302.8,300 304.5,300 306.2,300 307.9,300 309.6,300 311.3,300 
			313,300 314.7,300 316.4,300 318.1,300 319.8,300 321.5,300 323.2,300 324.9,300 326.6,300 328.3,300 330,300 331.7,300 
			333.4,300 335.1,300 336.8,300 338.5,300 340.2,300 341.9,300 343.6,300 345.3,300 347,300 348.7,300 350.4,299.5 352.1,298.1 
			353.8,297.6 355.5,299 357.2,298.6 358.9,294.2 360.6,296.6 362.3,297.1 364,299.5 365.7,300 367.4,300 369.1,300 370.8,300 
			372.5,300 374.2,300 375.9,300 377.6,300 379.3,299.5 381,299.5 382.7,300 384.4,300 386.1,300 387.8,299.5 389.5,300 391.2,300 
			392.9,300 394.6,300 396.3,300 398,300 399.7,300 401.4,300 403.1,299.5 404.8,300 406.5,300 408.2,300 409.9,300 411.6,300 
			413.3,300 415,300 416.7,300 418.4,300 420.1,300 421.8,300 423.5,300 425.2,300 426.9,300 428.6,299.5 430.3,298.1 432,299 
			433.7,297.6 435.4,300 437.1,300 438.8,300 440.5,300 442.2,300 443.9,300 445.6,300 447.3,300 449,300 450.7,300 452.4,300 
			454.1,300 455.8,300 457.5,300 459.2,299.5 460.9,295.7 462.6,296.2 464.3,287.5 466,292.8 467.7,295.2 469.4,294.7 471.1,293.3 
			472.8,283.2 474.5,289 476.2,287.5 477.9,282.7 479.6,288.5 481.3,289.9 483,292.3 484.7,294.2 486.4,297.1 488.1,292.8 
			489.8,294.2 491.5,297.6 493.2,295.2 494.9,292.3 496.6,289.9 498.3,292.8 500,289.4 501.7,284.6 503.4,289.4 505.1,288 
			506.8,288 508.5,293.3 510.2,296.2 511.9,295.7 513.6,293.8 515.3,292.3 517,293.8 518.7,293.3 520.4,298.1 522.1,298.6 
			523.8,298.1 525.5,299 527.2,300 528.9,300 530.6,299.5 532.3,300 534,300 535.7,300 537.4,300 539.1,300 540.8,300 542.5,300 
			544.2,300 545.9,300 547.6,299.5 549.3,299.5 551,298.1 552.7,300 554.4,300 556.1,300 557.8,300 559.5,300 561.2,300 562.9,300 
			564.6,300 566.3,300 568,300 569.7,300 571.4,300 573.1,299.5 574.8,299.5 576.5,299.5 578.2,300 579.9,300 581.6,300 583.3,300 
			585,300 586.7,300 588.4,300 590.1,300 591.8,300 593.5,300 595.2,300 596.9,300 598.6,300 600.3,300 602,300 603.7,300 
			605.4,300 607.1,300 608.8,300 610.5,300 612.2,300 613.9,300 615.6,300 617.3,300 619,300 620.7,300 622.4,300 624.1,300 
			625.8,300 627.5,300 629.2,300 630.9,300 632.6,300 634.3,299.5 636,300 637.7,300 639.4,300 641.1,300 642.8,299.5 644.5,300 
			646.2,299.5 647.9,299.5 649.6,300 651.3,300 653,300 654.7,300 656.4,300 658.1,300 659.8,299.5 661.5,299.5 663.2,299 
			664.9,294.2 666.6,299 668.3,297.1 670,295.2 671.7,289.9 673.4,289.4 675.1,288.5 676.8,285.6 678.5,284.2 680.2,282.2 
			681.9,283.7 683.6,279.4 685.3,283.7 687,281.8 688.7,288.5 690.4,283.2 692.1,286.6 693.8,278.9 695.5,281.3 697.2,271.7 
			698.9,277 700.6,277.4 702.3,287.5 704,278.4 705.7,271.2 707.4,268.3 709.1,265 710.8,272.2 712.5,274.1 714.2,267.8 
			715.9,268.8 717.6,279.8 719.3,270.2 721,263.5 722.7,256.3 724.4,244.8 726.1,240.5 727.8,240 729.5,230.4 731.2,229.9 
			732.9,226.6 734.6,221.8 736.3,212.2 738,231.8 739.7,234.7 741.4,239 743.1,238.6 744.8,230.9 746.5,216.5 748.2,209.3 
			749.9,219.8 751.6,208.3 753.3,184.8 755,179.5 756.7,158.4 758.4,157.4 760.1,169.4 761.8,164.2 763.5,161.8 765.2,150.7 
			766.9,151.7 768.6,155.5 770.3,156.5 772,150.2 773.7,157.9 775.4,167.5 777.1,163.7 778.8,152.2 780.5,136.8 782.2,126.7 
			783.9,134.4 785.6,139.7 787.3,143 789,144 790.7,122.4 792.4,106.6 794.1,99.4 795.8,99.8 797.5,111.4 799.2,121.4 800.9,103.2 
			802.6,96 804.3,103.2 806,86.9 807.7,80.2 809.4,82.6 811.1,76.8 812.8,79.2 814.5,72 816.2,83 817.9,87.8 819.6,79.7 821.3,78.7 
			823,84.5 824.7,98.9 826.4,99.8 828.1,101.8 829.8,110.9 831.5,113.8 833.2,117.1 834.9,105.1 836.6,105.1 838.3,104.2 840,81.1 
			841.7,85 843.4,90.2 845.1,91.7 846.8,81.6 848.5,69.6 850.2,90.2 851.9,105.6 853.6,97 855.3,92.6 857,93.1 858.7,108 
			860.4,106.6 862.1,114.7 863.8,104.2 865.5,102.7 867.2,91.2 868.9,107.5 870.6,117.6 872.3,98.9 874,118.1 875.7,123.4 
			877.4,107.5 879.1,116.6 880.8,113.3 882.5,127.7 884.2,149.3 885.9,167 887.6,188.6 		"/>
		<polyline class="st9" points="39.3,264 41,264 42.7,257.3 44.4,266.9 46.1,266.9 47.8,267.8 49.5,277 51.2,280.8 52.9,285.1 
			54.6,286.6 56.3,288.5 58,280.8 59.7,281.3 61.4,280.8 63.1,281.3 64.8,281.8 66.5,279.8 68.2,277.9 69.9,276.5 71.6,277.4 
			73.3,281.3 75,275.5 76.7,266.4 78.4,256.8 80.1,263 81.8,269.8 83.5,268.3 85.2,280.3 86.9,272.6 88.6,265.4 90.3,251 92,240.5 
			93.7,239.5 95.4,248.2 97.1,246.7 98.8,255.4 100.5,260.2 102.2,262.1 103.9,262.1 105.6,271.2 107.3,282.2 109,276 110.7,279.8 
			112.4,282.7 114.1,271.7 115.8,273.1 117.5,275.5 119.2,273.1 120.9,274.6 122.6,278.9 124.3,283.7 126,280.8 127.7,286.6 
			129.4,289.9 131.1,296.2 132.8,297.1 134.5,296.2 136.2,299 137.9,299 139.6,299 141.3,299.5 143,299.5 144.7,299 146.4,298.6 
			148.1,298.1 149.8,299 151.5,298.1 153.2,294.7 154.9,297.1 156.6,298.1 158.3,295.7 160,293.8 161.7,295.7 163.4,297.6 
			165.1,299 166.8,299 168.5,300 170.2,300 171.9,300 173.6,300 175.3,300 177,300 178.7,300 180.4,299.5 182.1,300 183.8,300 
			185.5,300 187.2,300 188.9,300 190.6,300 192.3,300 194,300 195.7,300 197.4,299.5 199.1,298.1 200.8,299.5 202.5,297.1 
			204.2,299 205.9,300 207.6,300 209.3,300 211,299.5 212.7,299.5 214.4,299 216.1,300 217.8,300 219.5,300 221.2,300 222.9,300 
			224.6,300 226.3,300 228,300 229.7,300 231.4,300 233.1,300 234.8,300 236.5,300 238.2,300 239.9,300 241.6,300 243.3,300 
			245,300 246.7,300 248.4,300 250.1,300 251.8,300 253.5,300 255.2,300 256.9,300 258.6,300 260.3,300 262,300 263.7,300 
			265.4,300 267.1,299.5 268.8,300 270.5,300 272.2,299.5 273.9,295.7 275.6,294.7 277.3,292.3 279,295.2 280.7,298.6 282.4,296.2 
			284.1,298.1 285.8,298.1 287.5,297.6 289.2,298.6 290.9,298.1 292.6,296.6 294.3,297.6 296,295.2 297.7,293.8 299.4,294.7 
			301.1,292.8 302.8,296.6 304.5,292.3 306.2,296.2 307.9,299.5 309.6,300 311.3,300 313,299.5 314.7,299.5 316.4,298.6 
			318.1,296.6 319.8,292.8 321.5,292.3 323.2,285.1 324.9,283.7 326.6,283.2 328.3,286.1 330,283.7 331.7,286.1 333.4,288.5 
			335.1,287.5 336.8,289.4 338.5,291.8 340.2,292.3 341.9,290.4 343.6,291.8 345.3,290.9 347,292.3 348.7,290.9 350.4,295.2 
			352.1,292.8 353.8,293.8 355.5,294.7 357.2,292.8 358.9,290.9 360.6,287 362.3,279.8 364,281.8 365.7,281.3 367.4,284.6 
			369.1,294.2 370.8,295.7 372.5,297.1 374.2,296.6 375.9,299 377.6,298.1 379.3,297.6 381,293.8 382.7,295.2 384.4,297.1 
			386.1,298.1 387.8,299.5 389.5,299 391.2,299.5 392.9,299.5 394.6,300 396.3,300 398,300 399.7,300 401.4,300 403.1,300 
			404.8,300 406.5,300 408.2,300 409.9,299.5 411.6,300 413.3,300 415,300 416.7,300 418.4,300 420.1,300 421.8,300 423.5,300 
			425.2,300 426.9,300 428.6,300 430.3,300 432,300 433.7,300 435.4,300 437.1,300 438.8,300 440.5,299.5 442.2,299 443.9,299.5 
			445.6,299.5 447.3,300 449,300 450.7,300 452.4,300 454.1,300 455.8,300 457.5,300 459.2,300 460.9,299.5 462.6,297.6 
			464.3,293.3 466,292.8 467.7,295.7 469.4,296.6 471.1,295.2 472.8,286.1 474.5,287.5 476.2,281.3 477.9,277 479.6,281.8 
			481.3,289.9 483,292.8 484.7,291.8 486.4,290.9 488.1,296.6 489.8,295.7 491.5,294.2 493.2,292.3 494.9,291.4 496.6,292.3 
			498.3,290.4 500,292.3 501.7,297.6 503.4,299 505.1,299 506.8,298.1 508.5,295.7 510.2,296.2 511.9,299 513.6,297.1 515.3,294.7 
			517,294.7 518.7,295.7 520.4,299 522.1,299 523.8,298.6 525.5,299.5 527.2,300 528.9,300 530.6,300 532.3,299.5 534,300 
			535.7,300 537.4,300 539.1,300 540.8,300 542.5,300 544.2,300 545.9,300 547.6,300 549.3,300 551,300 552.7,299.5 554.4,300 
			556.1,299.5 557.8,300 559.5,300 561.2,300 562.9,300 564.6,300 566.3,300 568,299.5 569.7,300 571.4,300 573.1,300 574.8,300 
			576.5,299.5 578.2,300 579.9,300 581.6,300 583.3,299.5 585,299 586.7,296.6 588.4,296.6 590.1,296.2 591.8,288 593.5,290.4 
			595.2,292.3 596.9,292.3 598.6,288 600.3,290.9 602,295.2 603.7,297.1 605.4,300 607.1,300 608.8,300 610.5,300 612.2,299.5 
			613.9,299 615.6,300 617.3,300 619,300 620.7,300 622.4,300 624.1,300 625.8,300 627.5,300 629.2,299.5 630.9,300 632.6,299.5 
			634.3,300 636,300 637.7,299.5 639.4,300 641.1,300 642.8,300 644.5,300 646.2,300 647.9,300 649.6,300 651.3,300 653,299.5 
			654.7,300 656.4,300 658.1,300 659.8,300 661.5,300 663.2,300 664.9,300 666.6,300 668.3,300 670,300 671.7,300 673.4,300 
			675.1,300 676.8,300 678.5,300 680.2,299.5 681.9,300 683.6,300 685.3,300 687,300 688.7,300 690.4,300 692.1,300 693.8,300 
			695.5,300 697.2,300 698.9,300 700.6,300 702.3,299.5 704,300 705.7,300 707.4,300 709.1,300 710.8,299.5 712.5,300 714.2,299.5 
			715.9,299.5 717.6,297.6 719.3,300 721,300 722.7,300 724.4,300 726.1,300 727.8,299.5 729.5,300 731.2,300 732.9,300 734.6,300 
			736.3,300 738,300 739.7,300 741.4,299.5 743.1,300 744.8,300 746.5,300 748.2,300 749.9,300 751.6,300 753.3,300 755,300 
			756.7,300 758.4,300 760.1,300 761.8,299.5 763.5,300 765.2,300 766.9,300 768.6,300 770.3,300 772,299.5 773.7,298.1 
			775.4,297.6 777.1,296.6 778.8,294.7 780.5,296.2 782.2,290.9 783.9,291.4 785.6,289.9 787.3,286.6 789,287.5 790.7,290.9 
			792.4,291.8 794.1,297.6 795.8,298.1 797.5,294.2 799.2,287.5 800.9,293.8 802.6,295.2 804.3,290.9 806,294.7 807.7,293.8 
			809.4,289.4 811.1,295.7 812.8,295.7 814.5,297.6 816.2,296.6 817.9,293.8 819.6,290.9 821.3,296.6 823,290.9 824.7,288.5 
			826.4,286.1 828.1,284.6 829.8,285.1 831.5,279.8 833.2,289 834.9,291.8 836.6,290.4 838.3,293.8 840,294.2 841.7,296.6 
			843.4,299 845.1,300 846.8,300 848.5,300 850.2,300 851.9,299.5 853.6,300 855.3,300 857,300 858.7,300 860.4,300 862.1,300 
			863.8,300 865.5,300 867.2,300 868.9,300 870.6,300 872.3,300 874,300 875.7,300 877.4,300 879.1,300 880.8,300 882.5,300 
			884.2,300 885.9,300 887.6,300 		"/>
		<polyline class="st10" points="39.3,266.9 41,267.8 42.7,260.6 44.4,247.7 46.1,237.6 47.8,254.4 49.5,253 51.2,244.3 52.9,230.4 
			54.6,210.7 56.3,221.3 58,227 59.7,220.3 61.4,238.6 63.1,239.5 64.8,245.8 66.5,249.1 68.2,251 69.9,263 71.6,247.7 73.3,239 
			75,241.4 76.7,240 78.4,227 80.1,216 81.8,195.8 83.5,198.2 85.2,187.2 86.9,204 88.6,208.3 90.3,219.8 92,212.2 93.7,206.9 
			95.4,190.1 97.1,176.6 98.8,186.2 100.5,182.4 102.2,178.6 103.9,180.5 105.6,176.2 107.3,154.6 109,158.4 110.7,167.5 
			112.4,174.2 114.1,187.2 115.8,185.3 117.5,193.9 119.2,193 120.9,180 122.6,183.8 124.3,198.7 126,213.6 127.7,201.1 
			129.4,199.2 131.1,202.1 132.8,190.6 134.5,208.8 136.2,234.7 137.9,228 139.6,233.3 141.3,229.9 143,236.2 144.7,230.9 
			146.4,229.9 148.1,224.2 149.8,230.9 151.5,230.4 153.2,224.2 154.9,220.8 156.6,219.4 158.3,215 160,197.8 161.7,181.9 
			163.4,175.2 165.1,167 166.8,166.1 168.5,172.8 170.2,179 171.9,184.3 173.6,186.7 175.3,181.4 177,167.5 178.7,161.8 
			180.4,169.9 182.1,171.8 183.8,165.1 185.5,159.4 187.2,164.2 188.9,149.3 190.6,124.8 192.3,109.9 194,113.3 195.7,113.8 
			197.4,122.4 199.1,148.8 200.8,139.2 202.5,138.7 204.2,130.6 205.9,144.5 207.6,146.9 209.3,134.4 211,132.5 212.7,148.3 
			214.4,158.9 216.1,172.3 217.8,173.8 219.5,184.8 221.2,172.8 222.9,175.7 224.6,163.7 226.3,163.2 228,165.1 229.7,172.3 
			231.4,172.8 233.1,165.6 234.8,163.7 236.5,173.8 238.2,164.6 239.9,154.6 241.6,136.8 243.3,132 245,101.3 246.7,121 
			248.4,136.8 250.1,140.6 251.8,130.6 253.5,132.5 255.2,128.6 256.9,123.8 258.6,121.4 260.3,105.6 262,101.3 263.7,104.6 
			265.4,100.8 267.1,97.4 268.8,91.2 270.5,103.2 272.2,102.7 273.9,112.3 275.6,114.7 277.3,105.1 279,98.4 280.7,87.4 282.4,82.6 
			284.1,69.6 285.8,78.7 287.5,90.7 289.2,90.2 290.9,99.4 292.6,95.5 294.3,102.2 296,111.8 297.7,115.7 299.4,91.2 301.1,111.4 
			302.8,114.2 304.5,119.5 306.2,114.2 307.9,119.5 309.6,119.5 311.3,125.8 313,139.7 314.7,160.3 316.4,190.6 318.1,196.8 
			319.8,199.7 321.5,192 323.2,192.5 324.9,184.8 326.6,173.8 328.3,177.1 330,180.5 331.7,185.3 333.4,175.2 335.1,180 
			336.8,182.4 338.5,187.2 340.2,185.8 341.9,174.7 343.6,167.5 345.3,173.3 347,167.5 348.7,177.6 350.4,174.2 352.1,177.6 
			353.8,177.1 355.5,181.9 357.2,191 358.9,213.1 360.6,219.8 362.3,228 364,225.1 365.7,226.6 367.4,227.5 369.1,215.5 
			370.8,214.6 372.5,201.6 374.2,204 375.9,223.2 377.6,220.8 379.3,208.8 381,219.8 382.7,226.6 384.4,227 386.1,219.8 
			387.8,225.6 389.5,236.6 391.2,238.6 392.9,240 394.6,249.1 396.3,237.1 398,236.2 399.7,219.4 401.4,214.1 403.1,208.8 
			404.8,226.1 406.5,214.6 408.2,222.2 409.9,228.5 411.6,241.9 413.3,227 415,224.6 416.7,217 418.4,214.6 420.1,224.2 
			421.8,218.4 423.5,209.8 425.2,219.8 426.9,217 428.6,217 430.3,212.6 432,216 433.7,227.5 435.4,248.2 437.1,255.8 438.8,253.4 
			440.5,256.8 442.2,252 443.9,261.6 445.6,268.8 447.3,281.3 449,280.3 450.7,283.2 452.4,288 454.1,279.8 455.8,277.4 
			457.5,278.9 459.2,282.7 460.9,273.6 462.6,275.5 464.3,280.8 466,279.8 467.7,283.7 469.4,287 471.1,287 472.8,289 474.5,286.6 
			476.2,284.2 477.9,286.1 479.6,285.6 481.3,286.6 483,283.2 484.7,283.2 486.4,286.6 488.1,281.3 489.8,287 491.5,282.7 
			493.2,284.2 494.9,286.1 496.6,286.1 498.3,289 500,288 501.7,274.6 503.4,262.6 505.1,262.6 506.8,258.7 508.5,252.5 
			510.2,258.2 511.9,258.7 513.6,263 515.3,256.8 517,267.4 518.7,271.2 520.4,261.1 522.1,260.6 523.8,272.6 525.5,268.3 
			527.2,263 528.9,273.1 530.6,275 532.3,273.1 534,279.4 535.7,277.4 537.4,283.2 539.1,287 540.8,276 542.5,284.2 544.2,279.8 
			545.9,271.2 547.6,267.8 549.3,276.5 551,277.4 552.7,273.6 554.4,283.2 556.1,280.8 557.8,272.2 559.5,273.1 561.2,265 
			562.9,258.7 564.6,253.4 566.3,241.4 568,241.9 569.7,230.9 571.4,221.3 573.1,221.3 574.8,204 576.5,203.5 578.2,195.4 
			579.9,202.1 581.6,197.8 583.3,187.7 585,185.8 586.7,178.1 588.4,181 590.1,199.2 591.8,194.9 593.5,174.2 595.2,161.8 
			596.9,158.4 598.6,146.4 600.3,136.3 602,135.4 603.7,132.5 605.4,124.3 607.1,110.4 608.8,128.6 610.5,124.3 612.2,116.6 
			613.9,119.5 615.6,107 617.3,107.5 619,126.2 620.7,121.9 622.4,110.9 624.1,116.2 625.8,128.6 627.5,118.1 629.2,138.7 
			630.9,154.1 632.6,165.1 634.3,168.5 636,162.2 637.7,158.4 639.4,164.6 641.1,152.6 642.8,147.4 644.5,139.2 646.2,136.3 
			647.9,142.6 649.6,138.7 651.3,143.5 653,124.8 654.7,114.7 656.4,115.2 658.1,102.2 659.8,103.7 661.5,101.3 663.2,109.9 
			664.9,122.9 666.6,113.3 668.3,140.6 670,141.6 671.7,158.4 673.4,174.2 675.1,182.9 676.8,198.2 678.5,184.3 680.2,182.9 
			681.9,178.1 683.6,186.2 685.3,181 687,181.9 688.7,177.6 690.4,184.8 692.1,200.2 693.8,206.9 695.5,210.2 697.2,211.2 
			698.9,213.6 700.6,204 702.3,226.1 704,233.3 705.7,242.9 707.4,241.4 709.1,234.7 710.8,227.5 712.5,197.3 714.2,200.2 
			715.9,200.6 717.6,191.5 719.3,203 721,188.2 722.7,197.8 724.4,194.9 726.1,195.8 727.8,182.9 729.5,201.1 731.2,186.2 
			732.9,193.9 734.6,193.4 736.3,189.1 738,182.9 739.7,178.6 741.4,148.3 743.1,147.8 744.8,147.4 746.5,139.7 748.2,145.9 
			749.9,141.1 751.6,160.8 753.3,193 755,185.3 756.7,193.4 758.4,200.2 760.1,191 761.8,180.5 763.5,175.2 765.2,189.6 
			766.9,206.4 768.6,204 770.3,197.3 772,190.6 773.7,173.3 775.4,164.6 777.1,163.7 778.8,178.1 780.5,200.6 782.2,207.8 
			783.9,204.5 785.6,201.1 787.3,197.3 789,199.2 790.7,210.7 792.4,215.5 794.1,212.6 795.8,212.6 797.5,208.3 799.2,206.4 
			800.9,214.1 802.6,222.2 804.3,227 806,234.7 807.7,237.1 809.4,236.6 811.1,244.3 812.8,243.4 814.5,238.6 816.2,233.3 
			817.9,227 819.6,234.7 821.3,225.6 823,225.6 824.7,215 826.4,215 828.1,215 829.8,204.5 831.5,206.9 833.2,194.4 834.9,203.5 
			836.6,205 838.3,202.6 840,225.1 841.7,220.3 843.4,211.7 845.1,210.7 846.8,218.9 848.5,230.9 850.2,210.2 851.9,194.9 
			853.6,203.5 855.3,207.8 857,206.9 858.7,192.5 860.4,193.9 862.1,185.8 863.8,195.8 865.5,197.8 867.2,210.2 868.9,193.9 
			870.6,186.7 872.3,206.9 874,187.2 875.7,179 877.4,193.9 879.1,183.4 880.8,187.2 882.5,173.8 884.2,152.2 885.9,141.1 
			887.6,116.2 		"/>
		<polyline class="st11" points="39.3,274.6 41,283.7 42.7,281.8 44.4,280.3 46.1,275.5 47.8,280.8 49.5,268.3 51.2,268.8 
			52.9,266.4 54.6,273.1 56.3,270.2 58,272.6 59.7,278.9 61.4,282.2 63.1,287.5 64.8,290.4 66.5,289.4 68.2,279.8 69.9,276.5 
			71.6,276.5 73.3,266.9 75,259.7 76.7,264 78.4,281.8 80.1,280.3 81.8,288.5 83.5,282.7 85.2,284.2 86.9,289.9 88.6,284.6 
			90.3,291.8 92,291.8 93.7,296.2 95.4,298.1 97.1,299 98.8,298.6 100.5,300 102.2,300 103.9,300 105.6,299.5 107.3,300 109,300 
			110.7,300 112.4,299.5 114.1,297.1 115.8,297.6 117.5,299.5 119.2,298.1 120.9,296.2 122.6,296.6 124.3,291.4 126,289.9 
			127.7,293.8 129.4,296.6 131.1,299 132.8,299.5 134.5,299.5 136.2,300 137.9,300 139.6,299.5 141.3,300 143,300 144.7,300 
			146.4,300 148.1,300 149.8,300 151.5,300 153.2,300 154.9,300 156.6,300 158.3,300 160,300 161.7,299.5 163.4,300 165.1,300 
			166.8,300 168.5,300 170.2,300 171.9,300 173.6,300 175.3,300 177,300 178.7,300 180.4,300 182.1,299.5 183.8,299.5 185.5,300 
			187.2,299.5 188.9,300 190.6,300 192.3,300 194,300 195.7,300 197.4,300 199.1,300 200.8,300 202.5,300 204.2,299.5 205.9,300 
			207.6,300 209.3,300 211,300 212.7,300 214.4,299.5 216.1,300 217.8,300 219.5,300 221.2,300 222.9,300 224.6,300 226.3,300 
			228,300 229.7,299.5 231.4,298.1 233.1,296.2 234.8,296.2 236.5,297.1 238.2,292.3 239.9,294.2 241.6,294.7 243.3,291.4 
			245,295.2 246.7,297.6 248.4,299.5 250.1,298.1 251.8,293.8 253.5,296.6 255.2,297.1 256.9,298.1 258.6,298.6 260.3,297.6 
			262,292.3 263.7,293.3 265.4,295.2 267.1,293.3 268.8,293.3 270.5,288 272.2,283.7 273.9,288 275.6,289.4 277.3,291.4 279,296.6 
			280.7,298.1 282.4,299.5 284.1,300 285.8,300 287.5,300 289.2,300 290.9,300 292.6,300 294.3,300 296,300 297.7,299.5 299.4,300 
			301.1,300 302.8,300 304.5,300 306.2,300 307.9,300 309.6,300 311.3,300 313,300 314.7,300 316.4,300 318.1,300 319.8,300 
			321.5,300 323.2,300 324.9,300 326.6,300 328.3,300 330,300 331.7,300 333.4,300 335.1,300 336.8,300 338.5,300 340.2,299.5 
			341.9,300 343.6,300 345.3,300 347,300 348.7,300 350.4,300 352.1,300 353.8,300 355.5,300 357.2,300 358.9,300 360.6,300 
			362.3,300 364,300 365.7,300 367.4,300 369.1,300 370.8,300 372.5,300 374.2,300 375.9,300 377.6,300 379.3,300 381,300 
			382.7,300 384.4,300 386.1,300 387.8,300 389.5,300 391.2,300 392.9,300 394.6,300 396.3,300 398,300 399.7,300 401.4,300 
			403.1,300 404.8,300 406.5,300 408.2,300 409.9,300 411.6,300 413.3,300 415,299.5 416.7,300 418.4,300 420.1,300 421.8,300 
			423.5,300 425.2,300 426.9,299.5 428.6,300 430.3,300 432,300 433.7,300 435.4,299.5 437.1,298.6 438.8,299 440.5,295.7 
			442.2,297.1 443.9,298.6 445.6,297.6 447.3,298.6 449,300 450.7,300 452.4,300 454.1,300 455.8,300 457.5,300 459.2,300 
			460.9,300 462.6,300 464.3,300 466,300 467.7,300 469.4,299.5 471.1,299.5 472.8,300 474.5,300 476.2,300 477.9,300 479.6,300 
			481.3,300 483,299.5 484.7,300 486.4,300 488.1,300 489.8,300 491.5,300 493.2,300 494.9,300 496.6,300 498.3,299.5 500,300 
			501.7,300 503.4,300 505.1,300 506.8,300 508.5,299.5 510.2,299.5 511.9,300 513.6,300 515.3,299.5 517,300 518.7,299.5 
			520.4,300 522.1,300 523.8,300 525.5,300 527.2,299.5 528.9,298.6 530.6,300 532.3,300 534,300 535.7,300 537.4,300 539.1,300 
			540.8,300 542.5,300 544.2,300 545.9,300 547.6,300 549.3,300 551,300 552.7,300 554.4,300 556.1,300 557.8,300 559.5,299.5 
			561.2,296.2 562.9,292.3 564.6,290.9 566.3,295.2 568,295.2 569.7,296.6 571.4,299 573.1,298.1 574.8,299.5 576.5,300 
			578.2,299.5 579.9,298.6 581.6,298.1 583.3,297.1 585,297.6 586.7,299 588.4,299.5 590.1,298.6 591.8,297.6 593.5,296.6 
			595.2,298.1 596.9,298.6 598.6,300 600.3,300 602,300 603.7,300 605.4,300 607.1,300 608.8,300 610.5,299.5 612.2,300 613.9,300 
			615.6,299.5 617.3,299.5 619,297.6 620.7,298.1 622.4,298.6 624.1,291.4 625.8,295.7 627.5,297.6 629.2,296.2 630.9,297.6 
			632.6,300 634.3,300 636,300 637.7,300 639.4,300 641.1,300 642.8,300 644.5,300 646.2,300 647.9,300 649.6,300 651.3,300 
			653,300 654.7,300 656.4,300 658.1,300 659.8,300 661.5,300 663.2,300 664.9,300 666.6,300 668.3,300 670,300 671.7,300 
			673.4,299.5 675.1,300 676.8,300 678.5,300 680.2,300 681.9,300 683.6,300 685.3,300 687,300 688.7,299.5 690.4,298.6 
			692.1,299.5 693.8,300 695.5,300 697.2,300 698.9,300 700.6,300 702.3,300 704,300 705.7,299.5 707.4,300 709.1,300 710.8,300 
			712.5,300 714.2,300 715.9,299.5 717.6,298.6 719.3,298.6 721,300 722.7,300 724.4,300 726.1,300 727.8,300 729.5,300 731.2,300 
			732.9,300 734.6,300 736.3,300 738,300 739.7,300 741.4,300 743.1,300 744.8,300 746.5,300 748.2,300 749.9,300 751.6,300 
			753.3,300 755,300 756.7,300 758.4,300 760.1,300 761.8,300 763.5,299.5 765.2,300 766.9,300 768.6,300 770.3,300 772,300 
			773.7,300 775.4,300 777.1,300 778.8,300 780.5,300 782.2,300 783.9,300 785.6,300 787.3,300 789,300 790.7,300 792.4,300 
			794.1,300 795.8,300 797.5,299.5 799.2,299.5 800.9,300 802.6,300 804.3,300 806,300 807.7,300 809.4,300 811.1,300 812.8,300 
			814.5,300 816.2,300 817.9,300 819.6,300 821.3,300 823,300 824.7,300 826.4,300 828.1,300 829.8,300 831.5,300 833.2,300 
			834.9,300 836.6,299.5 838.3,299.5 840,300 841.7,299.5 843.4,300 845.1,300 846.8,300 848.5,299.5 850.2,300 851.9,300 
			853.6,300 855.3,300 857,300 858.7,300 860.4,300 862.1,300 863.8,300 865.5,300 867.2,300 868.9,300 870.6,300 872.3,300 
			874,300 875.7,300 877.4,300 879.1,300 880.8,299.5 882.5,299 884.2,299 885.9,293.8 887.6,295.2 		"/>
	</g>
	<path class="st12" d="M39.3,0v300h850 M39.3,300v3 M209.3,300v3 M379.3,300v3 M549.3,300v3 M719.3,300v3 M889.1,300v3 M39.3,300h-3
		 M39.3,252h-3 M39.3,204h-3 M39.3,156h-3 M39.3,108h-3 M39.3,60h-3 M39.3,12h-3"/>
	<text transform="matrix(1 0 0 1 35.9678 314.5)" class="st13 st14 st15">0</text>
	<text transform="matrix(1 0 0 1 199.2959 314.5)" class="st13 st14 st15">100</text>
	<text transform="matrix(1 0 0 1 369.2959 314.5)" class="st13 st14 st15">200</text>
	<text transform="matrix(1 0 0 1 539.2959 314.5)" class="st13 st14 st15">300</text>
	<text transform="matrix(1 0 0 1 709.2959 314.5)" class="st13 st14 st15">400</text>
	<text transform="matrix(1 0 0 1 879.2959 314.5)" class="st13 st14 st15">500</text>
	<text transform="matrix(1 0 0 1 28.2334 305)" class="st13 st14 st15">0</text>
	<text transform="matrix(1 0 0 1 14.8896 257)" class="st13 st14 st15">100</text>
	<text transform="matrix(1 0 0 1 14.8896 209)" class="st13 st14 st15">200</text>
	<text transform="matrix(1 0 0 1 14.8896 160.9922)" class="st13 st14 st15">300</text>
	<text transform="matrix(1 0 0 1 14.8896 113)" class="st13 st14 st15">400</text>
	<text transform="matrix(1 0 0 1 14.8896 65)" class="st13 st14 st15">500</text>
	<text transform="matrix(1 0 0 1 14.8896 17)" class="st13 st14 st15">600</text>
	<text transform="matrix(1 0 0 1 416.6162 328)" class="st13 st14 st15">steps (thousands)</text>
	<text transform="matrix(1 0 0 1 52.6162 39)" class="st13 st14 st15">immigration rate = 1/1,000</text>
	<text transform="matrix(0 -1 1 0 10.3037 201.6953)" class="st13 st14 st15">species abundance</text>
</g>
</svg>
